<svg width="56" height="70" viewBox="0 0 56 70" fill="none" xmlns="http://www.w3.org/2000/svg">
<path d="M52.912 8.43346L28.272 2.27346C28.0935 2.22916 27.9069 2.22916 27.7284 2.27346L3.08843 8.43346C2.84614 8.4941 2.63107 8.63397 2.47739 8.83085C2.32371 9.02774 2.24023 9.27034 2.24023 9.5201C2.24023 9.76986 2.32371 10.0125 2.47739 10.2093C2.63107 10.4062 2.84614 10.5461 3.08843 10.6067L11.4802 12.7047V24.9201C11.4802 24.926 11.4819 24.9314 11.482 24.9372C11.4821 24.9429 11.4806 24.9483 11.4808 24.954C11.5698 28.3235 12.64 31.5938 14.5602 34.364V37.0817L13.578 40.4754C13.4988 40.7487 13.5265 41.0418 13.6556 41.2954C13.7847 41.5489 14.0054 41.7439 14.273 41.8406C14.5406 41.9373 14.8349 41.9286 15.0963 41.8161C15.3576 41.7037 15.5664 41.4961 15.6802 41.2353C15.794 41.496 16.0028 41.7037 16.2642 41.8161C16.5255 41.9285 16.8199 41.9373 17.0874 41.8405C17.355 41.7438 17.5757 41.5489 17.7048 41.2954C17.8339 41.0418 17.8616 40.7487 17.7824 40.4754L16.8002 37.0817V36.9642C19.8212 39.8363 23.8318 41.4355 28.0002 41.43C36.9832 41.43 44.2397 34.1929 44.5197 24.954C44.5198 24.9483 44.5184 24.9429 44.5185 24.9372C44.5186 24.9314 44.5202 24.926 44.5202 24.9201V12.7047L52.912 10.6067C53.1543 10.5461 53.3694 10.4062 53.523 10.2093C53.6767 10.0125 53.7602 9.76986 53.7602 9.5201C53.7602 9.27034 53.6767 9.02774 53.523 8.83085C53.3694 8.63397 53.1543 8.4941 52.912 8.43346H52.912ZM14.5602 29.4624C14.1766 28.3546 13.922 27.2062 13.8014 26.0401H14.5602V29.4624ZM14.5602 23.8001H13.7202V13.2647L14.5602 13.4747V23.8001ZM28.0002 39.19C25.8308 39.1893 23.6909 38.6868 21.748 37.7218C19.805 36.7568 18.1116 35.3553 16.8002 33.6271V26.0401H42.199C41.4207 33.5008 35.3878 39.19 28.0002 39.19ZM42.2802 23.8001H16.8002V14.0347L27.7284 16.7667C27.9069 16.8112 28.0936 16.8112 28.272 16.7667L42.2802 13.2647V23.8001ZM28.0002 14.5256L20.2981 12.6001L28.272 10.6067C28.5599 10.5343 28.8072 10.3506 28.9597 10.096C29.1123 9.84137 29.1575 9.53661 29.0854 9.24866C29.0134 8.96071 28.8301 8.71312 28.5756 8.56027C28.3212 8.40742 28.0165 8.36181 27.7284 8.43346L15.6799 11.4456L7.97804 9.5201L28.0002 4.51455L48.0224 9.5201L28.0002 14.5256Z" fill="white"/>
<path d="M52.64 53.7599C52.7894 53.7599 52.9374 53.73 53.075 53.6719C53.2127 53.6139 53.3374 53.5289 53.4417 53.4219C53.546 53.3149 53.6279 53.1882 53.6825 53.0491C53.737 52.91 53.7632 52.7614 53.7595 52.612C53.5839 45.5324 40.6952 42.3633 28 42.3633C15.3049 42.3633 2.41612 45.5324 2.24059 52.612C2.23683 52.7614 2.26301 52.91 2.31758 53.0491C2.37215 53.1882 2.45401 53.3149 2.55833 53.4219C2.66265 53.5289 2.78733 53.6139 2.92501 53.6719C3.0627 53.73 3.21061 53.7599 3.36003 53.7599H52.64ZM28 44.6033C40.1636 44.6033 49.6623 47.505 51.2783 51.5199H4.72175C6.33776 47.505 15.8364 44.6033 28 44.6033Z" fill="white"/>
</svg>
