<svg width="59" height="74" viewBox="0 0 59 74" fill="none" xmlns="http://www.w3.org/2000/svg">
<path d="M23.0098 12.2426C23.0098 15.5519 25.6176 19.2578 29.1104 19.2578C32.6032 19.2578 35.211 15.5519 35.211 12.2426C35.211 8.93336 32.5914 6.47656 29.1104 6.47656C25.6294 6.47656 23.0098 8.95112 23.0098 12.2426ZM29.1104 8.25256C31.6179 8.25256 33.441 9.92792 33.441 12.2426C33.441 14.5574 31.5117 17.4818 29.1104 17.4818C26.7091 17.4818 24.7798 14.6106 24.7798 12.2426C24.7798 9.87464 26.6265 8.25256 29.134 8.25256H29.1104Z" fill="white"/>
<path d="M21.9109 27.7767L21.3209 36.6567C21.3121 36.7731 21.3263 36.8901 21.3629 37.0009C21.3994 37.1117 21.4575 37.2141 21.5338 37.3022C21.6101 37.3903 21.703 37.4623 21.8073 37.5141C21.9115 37.5659 22.0249 37.5964 22.141 37.6039H22.2059C22.4292 37.6044 22.6443 37.5197 22.8075 37.3669C22.9708 37.214 23.07 37.0046 23.085 36.7811L23.7104 27.9011C23.7268 27.6656 23.6493 27.4331 23.495 27.2549C23.3406 27.0768 23.1221 26.9674 22.8873 26.9509C22.6526 26.9344 22.421 27.0122 22.2434 27.167C22.0658 27.3219 21.9568 27.5412 21.9404 27.7767H21.9109Z" fill="white"/>
<path d="M39.1151 27.6882C39.1121 27.7237 39.1121 27.7593 39.1151 27.7948L40.2007 36.8346C40.2265 37.0492 40.3295 37.2469 40.4902 37.3908C40.651 37.5346 40.8585 37.6147 41.0739 37.616H41.186C41.418 37.5879 41.6295 37.4687 41.7744 37.2846C41.9192 37.1005 41.9855 36.8663 41.9589 36.6333L40.8851 27.6349C40.933 25.7411 40.2915 23.8946 39.0806 22.441C37.8698 20.9875 36.1726 20.0264 34.3066 19.7376C32.6163 19.5121 30.914 19.3896 29.209 19.3706C27.4556 19.4012 25.705 19.5217 23.9639 19.7317C20.1584 20.2527 17.3913 23.5738 17.3736 27.6408L16.3706 36.6333C16.3578 36.7499 16.368 36.8679 16.4007 36.9806C16.4333 37.0932 16.4878 37.1983 16.5609 37.2898C16.6341 37.3814 16.7245 37.4576 16.827 37.514C16.9294 37.5705 17.042 37.6062 17.1582 37.619C17.2744 37.6318 17.392 37.6216 17.5043 37.5888C17.6166 37.556 17.7213 37.5014 17.8125 37.428C17.9037 37.3546 17.9797 37.2639 18.036 37.1611C18.0922 37.0582 18.1278 36.9453 18.1406 36.8287L19.1259 27.7829C19.1259 27.7829 19.1259 27.7237 19.1259 27.6882C19.1259 24.45 21.2027 21.8984 24.1881 21.4959C25.8487 21.2928 27.5186 21.1762 29.1913 21.1466C30.8071 21.1692 32.4204 21.2838 34.0234 21.49C35.4802 21.7205 36.8026 22.4783 37.7407 23.6202C38.6788 24.7622 39.1677 26.2093 39.1151 27.6882Z" fill="white"/>
<path d="M35.4 26.9538C35.1667 26.972 34.9499 27.0815 34.7965 27.2588C34.643 27.436 34.5652 27.6667 34.5799 27.901L35.2053 36.781C35.2203 37.0045 35.3195 37.214 35.4827 37.3668C35.646 37.5196 35.8611 37.6044 36.0844 37.6039H36.1493C36.3831 37.5872 36.6008 37.4781 36.7546 37.3005C36.9083 37.1229 36.9856 36.8913 36.9694 36.6567L36.344 27.7767C36.3273 27.542 36.2186 27.3236 36.0416 27.1693C35.8646 27.015 35.6339 26.9375 35.4 26.9538Z" fill="white"/>
<path d="M34.8091 45.6552L39.0689 41.5113C39.1875 41.3953 39.2713 41.2483 39.3107 41.0869C39.3502 40.9255 39.3437 40.7563 39.2921 40.5984C39.2405 40.4405 39.1458 40.3003 39.0187 40.1938C38.8916 40.0873 38.7373 40.0186 38.5732 39.9957L32.6733 39.1373L30.0419 33.8093C29.9688 33.6608 29.8557 33.5357 29.7155 33.4483C29.5752 33.3608 29.4134 33.3145 29.2483 33.3145C29.0832 33.3145 28.9214 33.3608 28.7811 33.4483C28.6409 33.5357 28.5278 33.6608 28.4548 33.8093L25.8234 39.1373L19.9234 39.9957C19.7663 40.0271 19.6206 40.1006 19.5019 40.2084C19.3832 40.3163 19.2959 40.4544 19.2493 40.6081C19.2027 40.7618 19.1985 40.9254 19.2372 41.0813C19.2759 41.2372 19.356 41.3797 19.4691 41.4935L23.723 45.6375L22.72 51.516C22.6919 51.6796 22.7101 51.8477 22.7725 52.0014C22.8348 52.1551 22.9389 52.2882 23.0728 52.3856C23.2067 52.483 23.3651 52.5407 23.5301 52.5524C23.6951 52.564 23.86 52.529 24.0062 52.4514L29.2631 49.6749L34.5259 52.4514C34.6529 52.5193 34.7949 52.5539 34.9389 52.552C35.125 52.5534 35.3068 52.4953 35.458 52.3863C35.5908 52.2876 35.6939 52.1543 35.7564 52.0008C35.8188 51.8474 35.838 51.6797 35.8121 51.516L34.8091 45.6552ZM32.986 45.4954L33.7648 50.0597L29.682 47.9048C29.5542 47.8389 29.4126 47.8045 29.269 47.8045C29.1253 47.8045 28.9837 47.8389 28.856 47.9048L24.7732 50.0597L25.552 45.4954C25.5765 45.3534 25.5663 45.2074 25.5221 45.0703C25.4779 44.9331 25.4011 44.8088 25.2983 44.708L21.9943 41.4757L26.5491 40.8127C26.6911 40.7921 26.826 40.7371 26.9421 40.6525C27.0583 40.568 27.1522 40.4563 27.2158 40.3273L29.2572 36.1832L31.3045 40.3273C31.3671 40.4559 31.4599 40.5673 31.5751 40.6519C31.6902 40.7365 31.8241 40.7917 31.9653 40.8127L36.5378 41.4757L33.2279 44.708C33.1227 44.8076 33.0431 44.9312 32.9959 45.0683C32.9486 45.2054 32.9351 45.3519 32.9565 45.4954H32.986Z" fill="white"/>
<path d="M53.5536 42.6772L49.2525 42.032L47.3291 38.1248C47.256 37.9762 47.143 37.8511 47.0027 37.7637C46.8625 37.6762 46.7007 37.6299 46.5356 37.6299C46.3705 37.6299 46.2086 37.6762 46.0684 37.7637C45.9282 37.8511 45.8151 37.9762 45.742 38.1248L43.8186 42.032L39.5293 42.6772C39.3658 42.7011 39.2122 42.7704 39.0859 42.8773C38.9595 42.9842 38.8656 43.1244 38.8146 43.2822C38.7637 43.4399 38.7577 43.6088 38.7975 43.7697C38.8373 43.9306 38.9211 44.0772 39.0396 44.1928L42.1489 47.2356L41.4173 51.5336C41.3948 51.6611 41.4005 51.792 41.4341 51.9171C41.4677 52.0421 41.5283 52.1582 41.6117 52.2571C41.695 52.356 41.7991 52.4353 41.9164 52.4893C42.0337 52.5433 42.1614 52.5707 42.2905 52.5696C42.4344 52.5714 42.5765 52.5368 42.7035 52.4689L46.5444 50.4384L50.3912 52.4689C50.5374 52.5465 50.7023 52.5815 50.8673 52.5699C51.0322 52.5583 51.1907 52.5005 51.3246 52.4031C51.4585 52.3057 51.5625 52.1726 51.6249 52.0189C51.6872 51.8652 51.7054 51.6971 51.6774 51.5336L50.9458 47.2356L54.0551 44.1928C54.1736 44.0772 54.2575 43.9306 54.2972 43.7697C54.337 43.6088 54.3311 43.4399 54.2801 43.2822C54.2291 43.1244 54.1352 42.9842 54.0089 42.8773C53.8826 42.7704 53.7289 42.7011 53.5654 42.6772H53.5536ZM49.3646 46.2884C49.2605 46.3882 49.1828 46.5125 49.1385 46.6499C49.0942 46.7874 49.0847 46.9337 49.1109 47.0758L49.6183 50.0358L46.9456 48.6268C46.8176 48.5616 46.6762 48.5272 46.5326 48.5262C46.3908 48.5265 46.2512 48.5611 46.1255 48.6268L43.4528 50.0358L43.9602 47.0758C43.9864 46.9337 43.9769 46.7874 43.9326 46.6499C43.8883 46.5125 43.8106 46.3882 43.7065 46.2884L41.5471 44.175L44.5325 43.7428C44.6741 43.7208 44.8083 43.6653 44.9243 43.5809C45.0402 43.4965 45.1344 43.3856 45.1992 43.2574L46.5326 40.5401L47.8719 43.2574C47.9367 43.3856 48.0309 43.4965 48.1469 43.5809C48.2628 43.6653 48.3971 43.7208 48.5386 43.7428L51.524 44.175L49.3646 46.2884Z" fill="white"/>
<path d="M18.9678 42.6772L14.6667 42.0319L12.7433 38.1247C12.6697 37.9757 12.5562 37.8502 12.4155 37.7624C12.2748 37.6745 12.1125 37.6278 11.9468 37.6274C11.7816 37.6268 11.6196 37.6732 11.4797 37.7612C11.3398 37.8493 11.2276 37.9753 11.1562 38.1247L9.23276 42.0319L4.93166 42.6772C4.76813 42.701 4.61451 42.7703 4.4882 42.8772C4.36189 42.9841 4.26793 43.1244 4.21697 43.2821C4.16601 43.4398 4.16007 43.6087 4.19983 43.7697C4.2396 43.9306 4.32347 44.0772 4.44196 44.1927L7.55126 47.2356L6.81966 51.5335C6.79004 51.6968 6.80692 51.8652 6.86838 52.0193C6.92984 52.1733 7.03338 52.3069 7.16709 52.4046C7.30081 52.5023 7.45928 52.5601 7.6243 52.5715C7.78932 52.5829 7.95418 52.5473 8.09996 52.4689L11.9468 50.4383L15.7936 52.4689C15.9206 52.5368 16.0626 52.5714 16.2066 52.5695C16.3928 52.5708 16.5746 52.5128 16.7258 52.4038C16.8585 52.3051 16.9616 52.1718 17.0241 52.0183C17.0865 51.8649 17.1057 51.6972 17.0798 51.5335L16.3423 47.2356L19.4693 44.1927C19.5877 44.0772 19.6716 43.9306 19.7114 43.7697C19.7511 43.6087 19.7452 43.4398 19.6942 43.2821C19.6433 43.1244 19.5493 42.9841 19.423 42.8772C19.2967 42.7703 19.1431 42.701 18.9796 42.6772H18.9678ZM14.7493 46.2884C14.6473 46.3897 14.571 46.5141 14.5269 46.6511C14.4827 46.7881 14.472 46.9337 14.4956 47.0758L15.0089 50.0358L12.3893 48.6505C12.2615 48.5845 12.1199 48.5501 11.9763 48.5501C11.8326 48.5501 11.691 48.5845 11.5633 48.6505L8.84926 50.0594L9.35666 47.0994C9.38024 46.9574 9.3695 46.8118 9.32536 46.6748C9.28121 46.5378 9.20494 46.4134 9.10296 46.3121L6.96126 44.175L9.94666 43.7428C10.0893 43.7217 10.2247 43.6665 10.3417 43.5821C10.4588 43.4976 10.5539 43.3863 10.6193 43.2574L11.9527 40.5401L13.292 43.2574C13.3554 43.3854 13.4485 43.4963 13.5635 43.5808C13.6785 43.6653 13.8119 43.7208 13.9528 43.7428L16.9441 44.175L14.7493 46.2884Z" fill="white"/>
</svg>
