<svg width="56" height="70" viewBox="0 0 56 70" fill="none" xmlns="http://www.w3.org/2000/svg">
<path fill-rule="evenodd" clip-rule="evenodd" d="M34.4398 25.3894C33.9918 24.9939 33.5656 24.5415 33.1675 24.0445C31.0894 21.4493 29.7498 17.6465 29.7498 14.8745C29.7498 10.0454 33.6706 6.12451 38.4998 6.12451C43.3289 6.12451 47.2498 10.0454 47.2498 14.8745C47.2498 17.6465 45.9101 21.4493 43.832 24.0445C43.4339 24.5415 43.0078 24.9939 42.5598 25.3894C47.6155 25.6799 51.6248 29.8711 51.6248 34.9986C51.6248 38.6588 51.6248 42.703 51.6248 45.4995C51.6248 46.6598 51.1636 47.7728 50.3438 48.5935C49.523 49.4134 48.41 49.8745 47.2498 49.8745C42.593 49.8745 34.4065 49.8745 29.7498 49.8745C28.5895 49.8745 27.4765 49.4134 26.6558 48.5935C26.3836 48.3205 26.15 48.0151 25.961 47.687C25.7195 47.2688 25.863 46.7333 26.2813 46.4918C26.6995 46.2503 27.235 46.3938 27.4765 46.812C27.5903 47.0089 27.7303 47.1918 27.8939 47.3554C28.3856 47.848 29.0533 48.1245 29.7498 48.1245H34.2744C34.1773 47.8506 34.1248 47.5566 34.1248 47.2495V43.7486C34.1248 43.2656 34.5168 42.8736 34.9998 42.8736L44.6248 42.8745V35.8745C44.6248 35.3915 45.0168 34.9995 45.4998 34.9995C45.9828 34.9995 46.3748 35.3915 46.3748 35.8745C46.3748 35.8745 46.3748 40.8226 46.3748 42.8745C46.3748 43.3383 46.1901 43.7836 45.862 44.1118C45.5339 44.4399 45.0885 44.6245 44.6248 44.6245H39.3748V48.1245H47.2498C47.9463 48.1245 48.6139 47.848 49.1056 47.3554C49.5983 46.8636 49.8748 46.196 49.8748 45.4995C49.8748 42.703 49.8748 38.6588 49.8748 34.9986C49.8748 30.649 46.3494 27.1236 41.9998 27.1236C39.7248 27.1236 37.2748 27.1236 34.9998 27.1236C34.4599 27.1236 33.9331 27.1779 33.4239 27.2811C32.9505 27.3774 32.4885 27.0711 32.3923 26.5978C32.296 26.1244 32.6023 25.6624 33.0756 25.5661C33.5201 25.476 33.9751 25.4165 34.4398 25.3894ZM37.6248 48.1245V44.6236H35.8748V47.2495C35.8748 47.7325 36.2668 48.1245 36.7498 48.1245H37.6248ZM38.4998 7.87451C42.3629 7.87451 45.4998 11.0114 45.4998 14.8745C45.4998 17.3184 44.2984 20.6626 42.4661 22.9508C41.3453 24.3508 39.9951 25.3745 38.4998 25.3745C37.0044 25.3745 35.6543 24.3508 34.5334 22.9508C32.7011 20.6626 31.4998 17.3184 31.4998 14.8745C31.4998 11.0114 34.6366 7.87451 38.4998 7.87451Z" fill="white"/>
<path fill-rule="evenodd" clip-rule="evenodd" d="M6.125 26.2504V23.6245C6.125 23.3926 6.21688 23.1695 6.38138 23.0059C6.54588 22.8414 6.76813 22.7495 7 22.7495C7 22.7495 10.4247 22.7504 12.7575 22.7504C14.3106 22.7504 15.8296 23.2106 17.1229 24.0716L17.5 24.3228L17.8771 24.0716C19.1704 23.2106 20.6894 22.7504 22.2425 22.7504C24.5753 22.7504 28 22.7495 28 22.7495C28.2319 22.7495 28.4541 22.8414 28.6186 23.0059C28.7831 23.1695 28.875 23.3926 28.875 23.6245V26.2504C29.8419 26.2504 30.625 27.0344 30.625 28.0004V42.8754C30.625 43.8423 29.8419 44.6254 28.875 44.6254C27.5642 44.6254 25.0294 44.6254 23.0247 44.6254C21.3999 44.6254 19.8424 45.2711 18.6935 46.4191C18.3584 46.7543 18.1186 46.994 18.1186 46.994C17.7774 47.3361 17.2226 47.3361 16.8814 46.994C16.8814 46.994 16.6416 46.7543 16.3065 46.4191C15.1576 45.2711 13.6001 44.6254 11.9752 44.6254C9.97062 44.6254 7.43575 44.6254 6.125 44.6254C5.15812 44.6254 4.375 43.8423 4.375 42.8754C4.375 40.0019 4.375 30.8739 4.375 28.0004C4.375 27.0344 5.15812 26.2504 6.125 26.2504ZM18.375 44.3953C19.7155 43.4135 21.3421 42.8754 23.0247 42.8754C25.0294 42.8754 27.5642 42.8754 28.875 42.8754V28.0004H23.0247C21.3999 28.0004 19.8424 28.6461 18.6935 29.7941L18.375 30.1126V44.3953ZM16.625 30.1126L16.3065 29.7941C15.1576 28.6461 13.6001 28.0004 11.9752 28.0004C9.97062 28.0004 7.43575 28.0004 6.125 28.0004V42.8754H11.9752C13.6579 42.8754 15.2845 43.4135 16.625 44.3953V30.1126ZM7.875 26.2495L11.9752 26.2504C14.0437 26.2504 16.0282 27.0641 17.5 28.514C18.9718 27.0641 20.9562 26.2504 23.0247 26.2504H27.125V24.4995L22.2434 24.5004C21.035 24.5004 19.8529 24.8583 18.8475 25.5276C18.3715 25.8453 17.9848 26.1025 17.9848 26.1025C17.6916 26.2985 17.3084 26.2985 17.0152 26.1025C17.0152 26.1025 16.6285 25.8453 16.1525 25.5276C15.1471 24.8583 13.965 24.5004 12.7566 24.5004L7.875 24.4995V26.2495Z" fill="white"/>
</svg>
