<svg width="56" height="70" viewBox="0 0 56 70" fill="none" xmlns="http://www.w3.org/2000/svg">
<path d="M28.2475 24.2878C29.1676 23.5205 29.8291 22.4884 30.1421 21.332C30.4551 20.1755 30.4044 18.9507 29.997 17.8241C29.5895 16.6974 28.845 15.7236 27.8647 15.0348C26.8844 14.3461 25.7158 13.9759 24.5178 13.9746C23.3197 13.9733 22.1503 14.3409 21.1685 15.0275C20.1866 15.714 19.44 16.6863 19.0301 17.812C18.6202 18.9378 18.5668 20.1624 18.8773 21.3196C19.1877 22.4767 19.847 23.5102 20.7654 24.2796C19.4351 24.9605 18.3178 25.9943 17.5358 27.2679C16.7539 28.5414 16.3374 30.0055 16.332 31.4999C16.3319 31.6532 16.3621 31.8049 16.4207 31.9465C16.4792 32.0881 16.5652 32.2168 16.6735 32.3251C16.7819 32.4335 16.9105 32.5194 17.0521 32.578C17.1937 32.6366 17.3455 32.6667 17.4987 32.6666H31.4987C31.6519 32.6667 31.8037 32.6366 31.9453 32.578C32.0869 32.5194 32.2155 32.4335 32.3239 32.3251C32.4322 32.2168 32.5181 32.0881 32.5767 31.9465C32.6353 31.8049 32.6655 31.6532 32.6654 31.4999C32.66 30.0085 32.2452 28.5472 31.4661 27.2754C30.687 26.0036 29.5737 24.9701 28.2475 24.2878ZM21.0113 19.8459C21.0102 19.1558 21.2132 18.4808 21.5947 17.9058C21.9762 17.3307 22.5191 16.8812 23.1553 16.6139C23.7915 16.3465 24.4926 16.2732 25.1703 16.4032C25.8481 16.5331 26.4723 16.8605 26.9645 17.3442C27.4567 17.8279 27.7949 18.4463 27.9367 19.1217C28.0784 19.7971 28.0173 20.4993 27.7611 21.14C27.5049 21.7808 27.065 22.3315 26.4966 22.723C25.9283 23.1144 25.257 23.3291 24.5669 23.3401C24.5436 23.34 24.522 23.3333 24.4987 23.3333C24.4796 23.3333 24.4621 23.3388 24.443 23.3391C23.5278 23.3212 22.656 22.9456 22.0145 22.2926C21.3731 21.6396 21.0129 20.7613 21.0113 19.8459ZM18.7828 30.3333C19.052 29.0273 19.7599 27.8528 20.7889 27.0049C21.8179 26.1569 23.1061 25.6866 24.4394 25.672C24.4639 25.6723 24.4866 25.6792 24.5113 25.6792C24.5319 25.6792 24.551 25.6734 24.5715 25.6731C25.9024 25.6905 27.1874 26.162 28.2136 27.0095C29.2399 27.857 29.9459 29.0297 30.2147 30.3333H18.7828Z" fill="white"/>
<path d="M50.2945 45.3459L40.778 35.8283C43.6178 31.7513 44.8281 26.7588 44.1705 21.834C43.5129 16.9091 41.0351 12.409 37.2251 9.22002C33.415 6.03098 28.549 4.38418 23.5853 4.60395C18.6217 4.82372 13.9202 6.89413 10.4069 10.4074C6.89364 13.9207 4.82323 18.6222 4.60346 23.5858C4.38369 28.5495 6.03049 33.4155 9.21953 37.2256C12.4086 41.0356 16.9086 43.5134 21.8335 44.171C26.7583 44.8286 31.7508 43.6183 35.8278 40.7784L45.3443 50.2949C45.6684 50.6239 46.0544 50.8855 46.48 51.0646C46.9056 51.2438 47.3625 51.3369 47.8243 51.3387C48.2861 51.3404 48.7437 51.2508 49.1707 51.0749C49.5977 50.899 49.9857 50.6403 50.3122 50.3138C50.6388 49.9873 50.8976 49.5994 51.0735 49.1725C51.2495 48.7455 51.3393 48.288 51.3376 47.8262C51.336 47.3644 51.2429 46.9075 51.0639 46.4818C50.8849 46.0561 50.6234 45.67 50.2945 45.3459ZM15.0558 39.2404C11.5117 36.9662 8.90619 33.4906 7.71723 29.451C6.52826 25.4113 6.8355 21.0785 8.58258 17.247C10.3297 13.4155 13.3995 10.3423 17.229 8.59106C21.0586 6.83977 25.3911 6.52778 29.4321 7.71231C33.473 8.89684 36.9515 11.4985 39.2295 15.0401C41.5075 18.5817 42.4324 22.8259 41.8345 26.9942C41.2366 31.1625 39.156 34.9756 35.9743 37.734C32.7926 40.4925 28.723 42.0114 24.5121 42.0123C21.1591 42.0162 17.876 41.0539 15.0558 39.2404ZM48.6448 48.6453C48.4229 48.8581 48.1274 48.9769 47.82 48.9769C47.5126 48.9769 47.217 48.8581 46.9951 48.6453L37.6649 39.3163C38.2468 38.7986 38.7981 38.2473 39.3158 37.6654L48.6448 46.9968C48.7538 47.1044 48.8402 47.2327 48.8989 47.3741C48.9576 47.5156 48.9874 47.6674 48.9867 47.8205C48.9869 47.9737 48.9567 48.1255 48.8981 48.267C48.8394 48.4086 48.7534 48.5371 48.6448 48.6453Z" fill="white"/>
</svg>
