<svg width="88" height="88" viewBox="0 0 88 88" fill="none" xmlns="http://www.w3.org/2000/svg">
<circle cx="44" cy="44" r="43" stroke="#18407C" stroke-width="2"/>
<g clip-path="url(#clip0)">
<path d="M63.2008 19.6533C58.7691 19.6533 55.2676 23.2096 55.2676 27.6413C55.2676 32.073 58.8239 35.5745 63.2008 35.5745C67.5778 35.5745 71.1888 32.0182 71.1888 27.5866C71.1888 23.1549 67.6325 19.6533 63.2008 19.6533ZM63.2008 33.8237C59.754 33.8237 56.9637 31.0334 56.9637 27.5866C56.9637 24.1397 59.8087 21.4041 63.2008 21.4041C66.6477 21.4041 69.438 24.1944 69.438 27.6413C69.438 31.0881 66.6477 33.8237 63.2008 33.8237Z" fill="#18407C"/>
<path d="M65.7191 28.8447C65.6644 28.6805 65.6644 28.5711 65.555 28.407C65.5002 28.2975 65.4455 28.1334 65.3361 28.024C65.2267 27.9146 65.172 27.8051 65.0625 27.6957C64.9531 27.5863 64.8437 27.4769 64.6796 27.4222C64.5701 27.3127 64.406 27.258 64.2966 27.2033C64.1324 27.1486 64.023 27.0392 63.8589 26.9845C63.6947 26.9297 63.5306 26.875 63.4212 26.8203C63.3665 26.8203 63.257 26.7656 63.2023 26.7109C63.1476 26.6562 63.0382 26.6562 62.9835 26.6015C62.9288 26.5468 62.8193 26.5468 62.7646 26.4921C62.7099 26.4373 62.6552 26.3826 62.6005 26.3279C62.5458 26.2732 62.4911 26.2185 62.4911 26.1091C62.4364 26.0544 62.4364 25.9449 62.4364 25.8902C62.4364 25.7808 62.4364 25.7261 62.4364 25.6167C62.4364 25.5619 62.4911 25.4525 62.4911 25.3978C62.5458 25.3431 62.5458 25.2337 62.6005 25.179C62.6552 25.1243 62.7099 25.0695 62.7646 25.0148C62.8193 24.9601 62.9288 24.9054 63.0382 24.9054C63.1476 24.8507 63.2023 24.8507 63.3118 24.8507C63.3665 24.8507 63.4212 24.8507 63.4759 24.8507C63.5306 24.8507 63.5853 24.8507 63.64 24.8507C63.7495 24.8507 63.8042 24.8507 63.9136 24.9054C64.023 24.9054 64.1324 24.9601 64.1871 24.9601C64.2419 24.9601 64.3513 25.0148 64.406 25.0148C64.5154 25.0148 64.5701 25.0695 64.6248 25.0695L64.8984 25.179L64.9531 24.8507L65.0625 23.9753V23.7564L64.8437 23.7017C64.789 23.7017 64.6796 23.647 64.6248 23.647C64.5701 23.647 64.5154 23.5923 64.406 23.5923C64.3513 23.5923 64.2419 23.5376 64.1324 23.5376C64.023 23.5376 63.9683 23.4829 63.8589 23.4829H63.8042V22.7169V22.4434H63.5306H62.7646H62.4911V22.7169V23.5376H62.4364C62.2722 23.5923 62.1081 23.647 61.944 23.7564C61.7798 23.8112 61.6704 23.9206 61.561 24.03C61.4515 24.1394 61.3421 24.2489 61.2327 24.413C61.1233 24.5224 61.0686 24.6866 61.0138 24.8507C60.9591 25.0148 60.9044 25.179 60.8497 25.3431C60.795 25.5072 60.795 25.7261 60.795 25.8902C60.795 26.0544 60.795 26.1638 60.8497 26.3279C60.9044 26.4921 60.9044 26.6015 61.0138 26.7656C61.0686 26.875 61.178 27.0392 61.2327 27.1486C61.3421 27.258 61.3968 27.3674 61.5063 27.4769C61.6157 27.5863 61.7251 27.6957 61.8892 27.7504C61.9987 27.8599 62.1628 27.9146 62.2722 27.9693C62.4364 28.024 62.6005 28.1334 62.7099 28.1881C62.8741 28.2428 63.0382 28.2976 63.1476 28.3523C63.2023 28.3523 63.3118 28.407 63.3665 28.4617C63.4212 28.5164 63.5306 28.5164 63.5853 28.5711C63.64 28.6258 63.6947 28.6805 63.7494 28.6805C63.8042 28.7352 63.8589 28.79 63.9136 28.8447C63.9683 28.8994 63.9683 28.9541 64.023 29.0635C64.023 29.1182 64.0777 29.2277 64.0777 29.3371C64.0777 29.4465 64.0777 29.5012 64.0777 29.6106C64.0777 29.6654 64.023 29.7748 63.9683 29.8295C63.9136 29.8842 63.8589 29.9389 63.8042 29.9936C63.7494 30.0483 63.6947 30.103 63.5853 30.1578C63.5306 30.2125 63.4212 30.2125 63.3665 30.2672C63.3118 30.2672 63.2023 30.3219 63.0929 30.3219C63.0382 30.3219 62.9835 30.3219 62.8741 30.3219C62.8193 30.3219 62.7099 30.3219 62.6552 30.3219C62.5458 30.3219 62.4364 30.3219 62.3816 30.3219C62.2722 30.3219 62.1628 30.2672 62.1081 30.2672C61.9987 30.2672 61.8892 30.2125 61.7798 30.1578C61.6704 30.103 61.561 30.103 61.4515 30.0483C61.3968 30.0483 61.3421 29.9936 61.2874 29.9936C61.2327 29.9936 61.178 29.9389 61.1233 29.9389L60.795 29.7748L60.7403 30.1578L60.6309 31.1426V31.3067L60.795 31.3614C61.0138 31.3067 61.1233 31.3614 61.2874 31.4161C61.3968 31.4708 61.561 31.5256 61.6704 31.5256C61.7798 31.5803 61.9439 31.5803 62.1081 31.635C62.2722 31.6897 62.3816 31.6897 62.5458 31.6897H62.6552V32.5104V32.7839H62.9288H63.6947H63.9683V32.5104V31.635H64.023C64.1871 31.5803 64.3513 31.5256 64.5154 31.4161C64.6796 31.3614 64.789 31.252 64.9531 31.1426C65.0625 31.0332 65.172 30.9237 65.2814 30.7596C65.3908 30.6502 65.4455 30.486 65.555 30.3219C65.6097 30.1578 65.6644 29.9936 65.7191 29.8295C65.7738 29.6654 65.7738 29.5012 65.7738 29.2824C65.7738 29.1182 65.7738 29.0088 65.7191 28.8447Z" fill="#18407C"/>
<path d="M59.3727 36.6139C59.0991 36.2309 58.4973 36.1762 58.1143 36.4498L49.251 43.5076L37.8161 38.7477C37.5426 38.6383 37.2143 38.693 36.9955 38.8571L24.7399 47.611C24.357 47.8846 24.2475 48.4317 24.5211 48.8147C24.6852 49.0883 24.9588 49.1977 25.2324 49.1977C25.3965 49.1977 25.5606 49.143 25.7248 49.0336L37.5973 40.5532L49.0868 45.3131C49.3604 45.4226 49.7434 45.3678 49.9622 45.2037L59.2086 37.8723C59.5915 37.5987 59.6463 36.9969 59.3727 36.6139Z" fill="#18407C"/>
<path d="M72.1741 66.5963H68.1254V41.2646C68.1254 40.7721 67.7425 40.3892 67.25 40.3892H59.2074C58.715 40.3892 58.332 40.7721 58.332 41.2646V66.5963H55.3775V50.0185C55.3775 49.5261 54.9945 49.1431 54.5021 49.1431H46.4047C45.9123 49.1431 45.5293 49.5261 45.5293 50.0185V66.5963H42.5749V48.7054C42.5749 48.213 42.1919 47.83 41.6995 47.83H33.6568C33.1644 47.83 32.7814 48.213 32.7814 48.7054V66.5963H29.827V53.8483C29.827 53.3559 29.444 52.9729 28.9516 52.9729H20.8542C20.3618 52.9729 19.9788 53.3559 19.9788 53.8483V66.5963H15.8754C15.383 66.5963 15 66.9792 15 67.4716C15 67.9641 15.383 68.347 15.8754 68.347H20.7995H28.8422H33.6568H41.6995H46.4047H54.4474H59.1527H67.1953H72.1194C72.6118 68.347 72.9948 67.9641 72.9948 67.4716C73.0495 66.9792 72.6665 66.5963 72.1741 66.5963ZM28.0215 66.5963H21.7296V54.7237H28.0215V66.5963ZM40.8241 66.5963H34.5322V49.5808H40.8241V66.5963ZM53.572 66.5963H47.2801V50.8939H53.572V66.5963ZM66.3747 66.5963H60.0828V42.1399H66.3747V66.5963Z" fill="#18407C"/>
</g>
<defs>
<clipPath id="clip0">
<rect width="58" height="58" fill="white" transform="translate(15 15)"/>
</clipPath>
</defs>
</svg>
