<svg width="88" height="88" viewBox="0 0 88 88" fill="none" xmlns="http://www.w3.org/2000/svg">
<circle cx="44" cy="44" r="43" stroke="#18407C" stroke-width="2"/>
<path d="M69.2382 53.1858C68.3899 52.5505 67.3939 52.1046 66.3536 51.8962L63.7708 51.3796L63.4817 50.2214C64.4903 49.4946 65.238 48.4316 65.5642 47.1972L66.0246 46.7586C66.9535 45.8741 67.6595 44.7631 68.0646 43.5469C68.3328 42.7439 68.4688 41.9057 68.4688 41.0565C68.4688 39.2513 67.7791 37.6091 66.6562 36.363V35.8438C66.6562 33.5111 65.1772 31.5227 63.1092 30.7524C63.7572 30.148 64.2565 29.3885 64.5492 28.5321C66.7568 28.2294 68.4688 26.3517 68.4688 24.0625C68.4688 21.564 66.436 19.5312 63.9375 19.5312C62.4567 19.5312 61.1055 20.2417 60.2618 21.4181C59.9826 21.3737 59.6981 21.3438 59.4062 21.3438C56.4075 21.3438 53.9688 23.7825 53.9688 26.7812C53.9688 28.3482 54.6385 29.7574 55.7015 30.7506C54.4907 31.1983 53.4875 32.0647 52.8604 33.1857C52.3919 32.5269 51.8499 31.9251 51.25 31.3859V30.4062C51.25 28.0736 49.771 26.0852 47.7029 25.3149C48.7669 24.3217 49.4375 22.9107 49.4375 21.3438C49.4375 18.345 46.9988 15.9062 44 15.9062C41.0012 15.9062 38.5625 18.345 38.5625 21.3438C38.5625 22.9107 39.2331 24.3217 40.2971 25.3149C38.229 26.0852 36.75 28.0736 36.75 30.4062V31.3859C36.1501 31.9251 35.6081 32.526 35.1396 33.1848C34.5116 32.0647 33.5092 31.1974 32.2976 30.7497C33.3615 29.7574 34.0312 28.3482 34.0312 26.7812C34.0312 23.7825 31.5925 21.3438 28.5938 21.3438C25.595 21.3438 23.1562 23.7825 23.1562 26.7812C23.1562 28.3482 23.8269 29.7583 24.8908 30.7515C23.3792 31.3161 22.1766 32.5423 21.6464 34.1037C20.4375 34.3802 19.5312 35.4586 19.5312 36.75V41.0565C19.5312 41.9057 19.6672 42.7439 19.9354 43.546C20.3405 44.7631 21.0465 45.8741 21.9745 46.7577L22.4358 47.1972C22.762 48.4316 23.5097 49.4937 24.5183 50.2214L24.2293 51.3796L21.6464 51.8962C20.607 52.1037 19.6101 52.5505 18.7627 53.1858C16.9747 54.527 15.9062 56.663 15.9062 58.8978V72.0938H72.0938V58.8978C72.0938 56.663 71.0253 54.527 69.2382 53.1858V53.1858ZM32.9392 47.1982L33.125 47.0205V51.5699C33.0434 51.6225 32.9592 51.6714 32.8794 51.7267L31.1457 51.3805L30.8567 50.2223C31.8653 49.4946 32.613 48.4325 32.9392 47.1982V47.1982ZM30.5966 53.1187L31.1675 53.2329C30.8675 53.5637 30.5902 53.9126 30.3383 54.2814L29.49 53.8573L30.5966 53.1187ZM27.4347 56.6875L26.9833 55.3345L27.6875 54.9819L29.4556 55.8655C29.3369 56.1338 29.2299 56.4075 29.1348 56.6866H27.4347V56.6875ZM25.3458 56.1528L25.8025 57.524L25.5433 58.0423L24.6996 56.4754L25.3458 56.1528ZM27.3413 58.5H28.7034C28.6373 58.9685 28.5938 59.4443 28.5938 59.931V60.3424L27.6875 62.0253L26.5946 59.9944L27.3413 58.5ZM28.5938 64.1659L28.7813 63.8179C29.075 64.4223 29.6903 64.8438 30.4062 64.8438V70.2812H28.5938V64.1659ZM32.2188 64.8438H34.4182C34.5324 65.2679 34.662 65.6884 34.8269 66.1007L35.8438 68.6428V70.2812H32.2188V64.8438ZM36.5098 65.4274C36.0676 64.3236 35.8438 63.1608 35.8438 61.97C35.8438 60.9677 36.0051 59.9772 36.3204 59.0265L36.7029 57.8801L34.9846 57.3065L34.6013 58.4529C34.2234 59.5902 34.0312 60.7729 34.0312 61.97C34.0312 62.3262 34.0485 62.6796 34.082 63.0312H30.4062V59.931C30.4062 55.8764 33.3153 52.4861 37.3227 51.869L37.4388 51.8508L43.0938 62.3534V70.2812H37.6562V68.2947L36.5098 65.4274ZM44 36.4183C45.2624 37.8384 46.9426 38.8072 48.8385 39.186L49.4375 39.3056V42.3769C49.4375 45.2706 47.0831 47.625 44.1903 47.625H44.0308C41.0157 47.625 38.5625 45.1854 38.5625 42.1857V39.3056L39.1615 39.186C41.0574 38.8072 42.7376 37.8384 44 36.4183ZM41.9981 49.1448C42.6443 49.3315 43.3248 49.4375 44.0308 49.4375H44.1903C44.822 49.4375 45.431 49.346 46.0146 49.1901C46.4161 50.3682 47.4039 51.2672 48.6699 51.5409L46.8746 54.875H41.1254L39.3301 51.5409C40.6124 51.2636 41.6075 50.3447 41.9981 49.1448V49.1448ZM44 60.2137L42.1014 56.6875H45.8986L44 60.2137ZM44.9062 62.3543L50.5622 51.8518L50.6782 51.8699C54.6847 52.4861 57.5938 55.8764 57.5938 59.931V63.0312H53.9189C53.9515 62.6796 53.9688 62.3262 53.9688 61.97C53.9688 60.7729 53.7766 59.5902 53.3978 58.4529L53.0154 57.3065L51.2971 57.8801L51.6787 59.0256C51.9949 59.9772 52.1562 60.9677 52.1562 61.97C52.1562 63.1599 51.9324 64.3236 51.4902 65.4274L50.3438 68.2947V70.2812H44.9062V62.3543ZM54.875 47.0205L55.0608 47.1972C55.387 48.4316 56.1347 49.4937 57.1433 50.2214L56.8542 51.3796L55.1206 51.7258C55.0408 51.6705 54.9566 51.6216 54.875 51.569V47.0205ZM60.5653 56.6875H58.8652C58.7701 56.4075 58.6631 56.1338 58.5444 55.8664L60.3125 54.9819L61.0167 55.3345L60.5653 56.6875ZM57.6617 54.2805C57.4089 53.9117 57.1316 53.5628 56.8325 53.232L57.4034 53.1178L58.5109 53.8555L57.6617 54.2805ZM52.1562 68.6428L53.1731 66.1007C53.338 65.6893 53.4685 65.2679 53.5818 64.8438H55.7812V70.2812H52.1562V68.6428ZM57.5938 64.8438C58.3097 64.8438 58.925 64.4223 59.2187 63.8179L59.4062 64.1659V70.2812H57.5938V64.8438ZM60.3125 62.0253L59.4062 60.3424V59.931C59.4062 59.4443 59.3627 58.9685 59.2957 58.5H60.6578L61.4054 59.9953L60.3125 62.0253ZM62.4567 58.0432L62.1975 57.5249L62.6542 56.1537L63.3004 56.4773L62.4567 58.0432ZM64.9253 53.4594L64.1604 54.8795L62.115 53.8564L63.2225 53.1187L64.9253 53.4594ZM61.9972 51.7566L60.3125 52.8794L58.6278 51.7557L58.8081 51.0334C59.2866 51.1721 59.7905 51.25 60.3125 51.25C60.8345 51.25 61.3384 51.1721 61.8169 51.0334L61.9972 51.7566ZM63.9375 45.8125C63.9375 47.8117 62.3117 49.4375 60.3125 49.4375C58.3133 49.4375 56.6875 47.8117 56.6875 45.8125V44.1115C56.6875 42.8618 57.5348 41.777 58.7474 41.4743L58.8217 41.4552C59.4171 42.0371 60.1938 42.4385 61.0629 42.5627L63.159 42.8627C63.6031 42.9252 63.9375 43.3112 63.9375 43.7589V45.8125ZM66.3454 42.9741C66.1977 43.4164 65.9947 43.8396 65.75 44.2356V43.7589C65.75 42.415 64.7468 41.2577 63.4164 41.0683L61.3202 40.7683C60.2282 40.6124 59.4062 39.6645 59.4062 38.5625H57.5938C57.5938 39.0165 57.6708 39.457 57.8131 39.8693C56.0604 40.5254 54.875 42.2029 54.875 44.1115V39.4688C54.875 39.0564 54.8469 38.6504 54.8016 38.2489C55.7577 36.7627 57.4062 35.8438 59.1815 35.8438H61.4435C64.3181 35.8438 66.6562 38.1828 66.6562 41.0565C66.6562 41.7108 66.552 42.3552 66.3454 42.9741V42.9741ZM61.2188 32.2188C61.2188 33.2183 60.4058 34.0312 59.4062 34.0312C58.4067 34.0312 57.5938 33.2183 57.5938 32.2188H61.2188ZM64.6806 34.8278C64.0037 34.4744 63.2632 34.2333 62.4802 34.1164C62.7431 33.6923 62.9134 33.212 62.9823 32.6963C63.7979 33.1558 64.4115 33.9134 64.6806 34.8278V34.8278ZM59.4062 30.4062C57.4071 30.4062 55.7812 28.7804 55.7812 26.7812H63.0312C63.0312 28.7804 61.4054 30.4062 59.4062 30.4062ZM63.9375 21.3438C65.4364 21.3438 66.6562 22.5636 66.6562 24.0625C66.6562 25.2343 65.9068 26.2257 64.8347 26.6063C64.7722 24.6624 63.6883 22.975 62.0996 22.0642C62.5926 21.6102 63.2397 21.3438 63.9375 21.3438V21.3438ZM59.4062 23.1562C60.7421 23.1562 61.8984 23.8903 62.5274 24.9688H56.286C56.9141 23.8903 58.0704 23.1562 59.4062 23.1562ZM55.8284 32.6864C55.919 33.3806 56.2036 34.0086 56.6304 34.5224C55.7658 34.8614 54.9738 35.3662 54.3023 36.0132C54.2171 35.7595 54.1301 35.5075 54.0267 35.2628C54.2089 34.1418 54.8868 33.212 55.8284 32.6864V32.6864ZM49.4003 30.0428C48.6092 29.5879 47.7555 29.2327 46.8556 28.9871C47.2371 28.4941 47.49 27.9059 47.5761 27.2588C48.5793 27.8243 49.2789 28.8439 49.4003 30.0428ZM42.1875 26.7812H45.8125C45.8125 27.7808 44.9996 28.5938 44 28.5938C43.0004 28.5938 42.1875 27.7808 42.1875 26.7812V26.7812ZM44 24.9688C42.0008 24.9688 40.375 23.3429 40.375 21.3438H47.625C47.625 23.3429 45.9992 24.9688 44 24.9688V24.9688ZM44 17.7188C45.3358 17.7188 46.4922 18.4528 47.1211 19.5312H40.8798C41.5078 18.4528 42.6642 17.7188 44 17.7188ZM40.423 27.2588C40.5091 27.9059 40.762 28.4941 41.1435 28.9871C40.2436 29.2327 39.3899 29.5879 38.5988 30.0428C38.7211 28.8439 39.4198 27.8243 40.423 27.2588V27.2588ZM44 30.4062C48.9971 30.4062 53.0625 34.4717 53.0625 39.4688V50.6492C52.3937 50.3909 51.6913 50.1915 50.9537 50.0782L49.162 49.8027C48.4388 49.6912 47.8824 49.1702 47.6966 48.4959C49.8163 47.2761 51.2491 44.9923 51.2491 42.3769V37.8194L49.1928 37.4079C47.4474 37.059 45.9385 36.0767 44.9053 34.6403V32.2188H43.0928V34.6403C42.0588 36.0767 40.5499 37.059 38.8054 37.4079L36.75 37.8194V42.1857C36.75 44.8356 38.1891 47.151 40.3252 48.4162C40.1638 49.1294 39.5902 49.6867 38.838 49.8027L37.0463 50.0782C36.3087 50.1915 35.6063 50.3909 34.9375 50.6492V39.4688C34.9375 34.4717 39.0029 30.4062 44 30.4062V30.4062ZM33.9723 35.2628C33.908 35.4151 33.8591 35.5737 33.8011 35.7287C33.1368 35.116 32.3502 34.6547 31.4947 34.3693C31.8544 33.8853 32.0892 33.3117 32.1707 32.6855C33.1132 33.2111 33.792 34.1418 33.9723 35.2628V35.2628ZM26.7812 32.2188H30.4062C30.4062 33.2183 29.5933 34.0312 28.5938 34.0312C27.5942 34.0312 26.7812 33.2183 26.7812 32.2188ZM28.5938 30.4062C26.5946 30.4062 24.9688 28.7804 24.9688 26.7812H32.2188C32.2188 28.7804 30.5929 30.4062 28.5938 30.4062ZM28.5938 23.1562C29.9296 23.1562 31.0859 23.8903 31.7149 24.9688H25.4735C26.1016 23.8903 27.2579 23.1562 28.5938 23.1562V23.1562ZM25.0159 32.6827C25.0793 33.1703 25.2361 33.6243 25.4735 34.0312H23.6483C23.9773 33.4657 24.4495 32.999 25.0159 32.6827V32.6827ZM21.6546 42.9732C21.448 42.3552 21.3438 41.7108 21.3438 41.0565V36.75C21.3438 36.2507 21.7498 35.8438 22.25 35.8438H29.5C31.0098 35.8438 32.419 36.6132 33.2573 37.8593C33.1794 38.3858 33.125 38.9205 33.125 39.4688V44.1115C33.125 42.2029 31.9396 40.5245 30.1869 39.8693C30.3292 39.457 30.4062 39.0165 30.4062 38.5625H28.5938C28.5938 39.6645 27.7718 40.6124 26.6807 40.7692L24.5845 41.0692C23.2532 41.2586 22.25 42.415 22.25 43.7589V44.2356C22.0053 43.8387 21.8023 43.4164 21.6546 42.9732V42.9732ZM24.0625 43.7589C24.0625 43.3112 24.3969 42.9252 24.8401 42.8617L26.9362 42.5618C27.8053 42.4376 28.5811 42.0352 29.1774 41.4543L29.2526 41.4734C30.4652 41.777 31.3125 42.8618 31.3125 44.1115V45.8125C31.3125 47.8117 29.6867 49.4375 27.6875 49.4375C25.6883 49.4375 24.0625 47.8117 24.0625 45.8125V43.7589ZM27.6875 51.25C28.2095 51.25 28.7134 51.1721 29.1919 51.0334L29.3722 51.7557L27.6875 52.8794L26.0028 51.7557L26.1831 51.0334C26.6616 51.1721 27.1655 51.25 27.6875 51.25ZM24.7784 53.1187L25.8859 53.8564L23.8405 54.8795L23.0747 53.4594L24.7784 53.1187ZM17.7188 58.8978C17.7188 57.2294 18.5153 55.6363 19.8512 54.6348C20.2744 54.3177 20.7492 54.0703 21.2486 53.8908L26.7812 64.1668V70.2812H21.3438V60.3125H19.5312V70.2812H17.7188V58.8978ZM70.2812 70.2812H68.4688V60.3125H66.6562V70.2812H61.2188V64.1668L66.7514 53.8917C67.2507 54.0712 67.7265 54.3186 68.1497 54.6358C69.4847 55.6363 70.2812 57.2303 70.2812 58.8978V70.2812Z" fill="#18407C"/>
<path d="M43.9996 45.8123C45.4632 45.8123 46.7791 44.9994 47.4334 43.6898L47.5286 43.4986L45.9073 42.6875L45.8121 42.8796C45.4668 43.5702 44.7727 43.9998 43.9996 43.9998C43.2266 43.9998 42.5324 43.5702 42.1871 42.8796L42.092 42.6884L40.4707 43.4995L40.5659 43.6898C41.2202 44.9994 42.536 45.8123 43.9996 45.8123Z" fill="#18407C"/>
</svg>
