<svg width="88" height="88" viewBox="0 0 88 88" fill="none" xmlns="http://www.w3.org/2000/svg">
<circle cx="44" cy="44" r="43" stroke="#18407C" stroke-width="2"/>
<path d="M48.5312 63.9375H46.7188V55.0563C46.7188 54.8159 46.6233 54.5854 46.4533 54.4154C46.2834 54.2455 46.0529 54.15 45.8125 54.15C45.5721 54.15 45.3416 54.2455 45.1717 54.4154C45.0017 54.5854 44.9062 54.8159 44.9062 55.0563V63.9375H21.3438V45.8125H28.8837C29.1241 45.8125 29.3546 45.717 29.5246 45.5471C29.6945 45.3771 29.79 45.1466 29.79 44.9062C29.79 44.6659 29.6945 44.4354 29.5246 44.2654C29.3546 44.0955 29.1241 44 28.8837 44H20.4375C20.1971 44 19.9666 44.0955 19.7967 44.2654C19.6267 44.4354 19.5312 44.6659 19.5312 44.9062V63.9375H17.7188C17.4784 63.9375 17.2479 64.033 17.0779 64.2029C16.908 64.3729 16.8125 64.6034 16.8125 64.8438V66.6562C16.8125 67.858 17.2899 69.0106 18.1397 69.8603C18.9894 70.7101 20.142 71.1875 21.3438 71.1875H44.9062C46.108 71.1875 47.2606 70.7101 48.1103 69.8603C48.9601 69.0106 49.4375 67.858 49.4375 66.6562V64.8438C49.4375 64.6034 49.342 64.3729 49.1721 64.2029C49.0021 64.033 48.7716 63.9375 48.5312 63.9375ZM47.625 66.6562C47.625 67.3773 47.3386 68.0688 46.8287 68.5787C46.3188 69.0886 45.6273 69.375 44.9062 69.375H43.0938V68.4688C43.0938 68.2284 42.9983 67.9979 42.8283 67.8279C42.6584 67.658 42.4279 67.5625 42.1875 67.5625C41.9471 67.5625 41.7166 67.658 41.5467 67.8279C41.3767 67.9979 41.2812 68.2284 41.2812 68.4688V69.375H24.9688V68.4688C24.9688 68.2284 24.8733 67.9979 24.7033 67.8279C24.5334 67.658 24.3029 67.5625 24.0625 67.5625C23.8221 67.5625 23.5916 67.658 23.4217 67.8279C23.2517 67.9979 23.1562 68.2284 23.1562 68.4688V69.375H21.3438C20.6227 69.375 19.9312 69.0886 19.4213 68.5787C18.9114 68.0688 18.625 67.3773 18.625 66.6562V65.75H47.625V66.6562Z" fill="#18407C"/>
<path d="M63.9375 22.25H65.75C65.9904 22.25 66.2209 22.1545 66.3908 21.9846C66.5608 21.8146 66.6562 21.5841 66.6562 21.3438C66.6562 21.1034 66.5608 20.8729 66.3908 20.7029C66.2209 20.533 65.9904 20.4375 65.75 20.4375H63.9375C63.2164 20.4375 62.5249 20.7239 62.0151 21.2338C61.5052 21.7437 61.2188 22.4352 61.2188 23.1562V24.0625H60.3125C60.0721 24.0625 59.8416 24.158 59.6717 24.3279C59.5017 24.4979 59.4062 24.7284 59.4062 24.9688C59.4062 25.2091 59.5017 25.4396 59.6717 25.6096C59.8416 25.7795 60.0721 25.875 60.3125 25.875H61.2188V28.5938C61.2188 28.8341 61.3142 29.0646 61.4842 29.2346C61.6541 29.4045 61.8846 29.5 62.125 29.5C62.3654 29.5 62.5959 29.4045 62.7658 29.2346C62.9358 29.0646 63.0312 28.8341 63.0312 28.5938V25.875H63.9375C64.1779 25.875 64.4084 25.7795 64.5783 25.6096C64.7483 25.4396 64.8438 25.2091 64.8438 24.9688C64.8438 24.7284 64.7483 24.4979 64.5783 24.3279C64.4084 24.158 64.1779 24.0625 63.9375 24.0625H63.0312V23.1562C63.0312 22.9159 63.1267 22.6854 63.2967 22.5154C63.4666 22.3455 63.6971 22.25 63.9375 22.25Z" fill="#18407C"/>
<path d="M68.4688 16.8125H57.5938C56.8727 16.8125 56.1812 17.0989 55.6713 17.6088C55.1614 18.1187 54.875 18.8102 54.875 19.5312V21.3438C54.875 21.5841 54.9705 21.8146 55.1404 21.9846C55.3104 22.1545 55.5409 22.25 55.7812 22.25C56.0216 22.25 56.2521 22.1545 56.4221 21.9846C56.592 21.8146 56.6875 21.5841 56.6875 21.3438V19.5312C56.6875 19.2909 56.783 19.0604 56.9529 18.8904C57.1229 18.7205 57.3534 18.625 57.5938 18.625H68.4688C68.7091 18.625 68.9396 18.7205 69.1096 18.8904C69.2795 19.0604 69.375 19.2909 69.375 19.5312V30.4062C69.375 30.6466 69.2795 30.8771 69.1096 31.0471C68.9396 31.217 68.7091 31.3125 68.4688 31.3125H57.5938C57.3534 31.3125 57.1229 31.217 56.9529 31.0471C56.783 30.8771 56.6875 30.6466 56.6875 30.4062V24.9688C56.6875 24.7284 56.592 24.4979 56.4221 24.3279C56.2521 24.158 56.0216 24.0625 55.7812 24.0625C55.5409 24.0625 55.3104 24.158 55.1404 24.3279C54.9705 24.4979 54.875 24.7284 54.875 24.9688V30.4062C54.875 31.1273 55.1614 31.8188 55.6713 32.3287C56.1812 32.8386 56.8727 33.125 57.5938 33.125H68.4688C69.1898 33.125 69.8813 32.8386 70.3912 32.3287C70.9011 31.8188 71.1875 31.1273 71.1875 30.4062V19.5312C71.1875 18.8102 70.9011 18.1187 70.3912 17.6088C69.8813 17.0989 69.1898 16.8125 68.4688 16.8125Z" fill="#18407C"/>
<path d="M59.4062 53.0625C59.4062 53.7795 59.6189 54.4803 60.0172 55.0765C60.4155 55.6726 60.9816 56.1372 61.644 56.4116C62.3064 56.6859 63.0353 56.7577 63.7385 56.6179C64.4416 56.478 65.0876 56.1327 65.5945 55.6258C66.1015 55.1188 66.4467 54.4729 66.5866 53.7697C66.7265 53.0665 66.6547 52.3377 66.3803 51.6753C66.106 51.0129 65.6413 50.4467 65.0452 50.0484C64.4491 49.6501 63.7482 49.4375 63.0313 49.4375C62.0698 49.4375 61.1478 49.8194 60.468 50.4992C59.7882 51.1791 59.4062 52.1011 59.4062 53.0625ZM64.8438 53.0625C64.8438 53.421 64.7375 53.7714 64.5383 54.0695C64.3391 54.3675 64.0561 54.5999 63.7249 54.737C63.3937 54.8742 63.0292 54.9101 62.6777 54.8402C62.3261 54.7702 62.0031 54.5976 61.7496 54.3441C61.4961 54.0907 61.3235 53.7677 61.2536 53.4161C61.1836 53.0645 61.2195 52.7001 61.3567 52.3689C61.4939 52.0377 61.7262 51.7546 62.0243 51.5555C62.3223 51.3563 62.6728 51.25 63.0313 51.25C63.512 51.25 63.973 51.441 64.3129 51.7809C64.6528 52.1208 64.8438 52.5818 64.8438 53.0625Z" fill="#18407C"/>
<path d="M68.4688 44.9062H57.5938C56.8727 44.9062 56.1812 45.1927 55.6713 45.7026C55.1614 46.2124 54.875 46.9039 54.875 47.625V58.5C54.875 59.2211 55.1614 59.9126 55.6713 60.4224C56.1812 60.9323 56.8727 61.2188 57.5938 61.2188H68.4688C69.1898 61.2188 69.8813 60.9323 70.3912 60.4224C70.9011 59.9126 71.1875 59.2211 71.1875 58.5V56.6875C71.1875 56.4471 71.092 56.2166 70.9221 56.0467C70.7521 55.8767 70.5216 55.7812 70.2812 55.7812C70.0409 55.7812 69.8104 55.8767 69.6404 56.0467C69.4705 56.2166 69.375 56.4471 69.375 56.6875V58.5C69.375 58.7404 69.2795 58.9709 69.1096 59.1408C68.9396 59.3108 68.7091 59.4062 68.4688 59.4062H57.5938C57.3534 59.4062 57.1229 59.3108 56.9529 59.1408C56.783 58.9709 56.6875 58.7404 56.6875 58.5V47.625C56.6875 47.3846 56.783 47.1541 56.9529 46.9842C57.1229 46.8142 57.3534 46.7188 57.5938 46.7188H68.4688C68.7091 46.7188 68.9396 46.8142 69.1096 46.9842C69.2795 47.1541 69.375 47.3846 69.375 47.625V53.0625C69.375 53.3029 69.4705 53.5334 69.6404 53.7033C69.8104 53.8733 70.0409 53.9688 70.2812 53.9688C70.5216 53.9688 70.7521 53.8733 70.9221 53.7033C71.092 53.5334 71.1875 53.3029 71.1875 53.0625V47.625C71.1875 46.9039 70.9011 46.2124 70.3912 45.7026C69.8813 45.1927 69.1898 44.9062 68.4688 44.9062Z" fill="#18407C"/>
<path d="M37.1759 27.5513C37.3202 27.6406 37.4866 27.6877 37.6563 27.6872C37.7981 27.6864 37.9378 27.6522 38.0641 27.5875L43.5016 24.8688C43.65 24.7927 43.7746 24.6772 43.8616 24.5349C43.9486 24.3925 43.9946 24.229 43.9946 24.0622C43.9946 23.8954 43.9486 23.7319 43.8616 23.5895C43.7746 23.4472 43.65 23.3317 43.5016 23.2556L38.0641 20.5369C37.9261 20.4674 37.7727 20.4343 37.6183 20.4407C37.464 20.4472 37.3138 20.493 37.1822 20.5738C37.0505 20.6546 36.9417 20.7678 36.8661 20.9025C36.7904 21.0372 36.7505 21.189 36.75 21.3434V26.781C36.7497 26.935 36.7886 27.0865 36.8632 27.2213C36.9377 27.3561 37.0453 27.4696 37.1759 27.5513ZM38.5625 22.8116L41.0638 24.0622L38.5625 25.3128V22.8116Z" fill="#18407C"/>
<path d="M39.4688 32.2188C41.0819 32.2188 42.6588 31.7404 44.0001 30.8442C45.3414 29.948 46.3868 28.6741 47.0041 27.1838C47.6215 25.6934 47.783 24.0535 47.4683 22.4713C47.1536 20.8891 46.3768 19.4358 45.2361 18.2952C44.0954 17.1545 42.6421 16.3777 41.06 16.063C39.4778 15.7483 37.8378 15.9098 36.3475 16.5271C34.8571 17.1444 33.5833 18.1898 32.6871 19.5311C31.7909 20.8724 31.3125 22.4493 31.3125 24.0625C31.3125 26.2257 32.1718 28.3002 33.7014 29.8298C35.231 31.3594 37.3056 32.2188 39.4688 32.2188ZM39.4688 17.7188C40.7234 17.7188 41.9499 18.0908 42.9931 18.7879C44.0364 19.4849 44.8495 20.4757 45.3296 21.6349C45.8098 22.794 45.9354 24.0695 45.6906 25.3001C45.4458 26.5307 44.8416 27.661 43.9545 28.5482C43.0673 29.4354 41.9369 30.0396 40.7064 30.2844C39.4758 30.5291 38.2003 30.4035 37.0411 29.9234C35.8819 29.4432 34.8912 28.6301 34.1941 27.5869C33.4971 26.5437 33.125 25.3172 33.125 24.0625C33.125 22.38 33.7934 20.7665 34.983 19.5768C36.1727 18.3871 37.7863 17.7188 39.4688 17.7188Z" fill="#18407C"/>
<path d="M48.5313 35.8438C48.6719 35.8438 48.8107 35.811 48.9365 35.7481C49.0624 35.6852 49.1718 35.5938 49.2562 35.4813L51.975 31.8563C52.1192 31.664 52.1811 31.4223 52.1471 31.1843C52.1131 30.9464 51.986 30.7317 51.7937 30.5875C51.6015 30.4433 51.3598 30.3814 51.1218 30.4154C50.8839 30.4494 50.6692 30.5765 50.525 30.7688L47.8063 34.3938C47.662 34.586 47.6001 34.8277 47.6341 35.0657C47.6681 35.3036 47.7952 35.5183 47.9875 35.6625C48.1444 35.7802 48.3352 35.8438 48.5313 35.8438Z" fill="#18407C"/>
<path d="M50.525 39.1063C50.6094 39.2188 50.7189 39.3102 50.8447 39.3731C50.9706 39.436 51.1093 39.4688 51.25 39.4688C51.4461 39.4688 51.6369 39.4052 51.7937 39.2875L55.4187 36.5688C55.611 36.4245 55.7381 36.2099 55.7721 35.9719C55.8061 35.734 55.7442 35.4923 55.6 35.3C55.4558 35.1077 55.2411 34.9806 55.0032 34.9466C54.7652 34.9126 54.5235 34.9745 54.3312 35.1188L50.7063 37.8375C50.514 37.9817 50.3869 38.1964 50.3529 38.4343C50.3189 38.6723 50.3808 38.914 50.525 39.1063Z" fill="#18407C"/>
<path d="M59.4057 41.0998C59.3842 40.9797 59.3386 40.8651 59.2717 40.763C59.2048 40.661 59.1179 40.5734 59.0164 40.5057C58.9148 40.438 58.8006 40.3915 58.6806 40.369C58.5607 40.3465 58.4374 40.3485 58.3182 40.3748L53.7869 41.2811C53.6679 41.293 53.5524 41.3282 53.447 41.3848C53.3416 41.4413 53.2484 41.518 53.1727 41.6106C53.0197 41.7976 52.9473 42.0376 52.9713 42.278C52.9954 42.5183 53.1139 42.7393 53.3008 42.8922C53.4878 43.0452 53.7278 43.1176 53.9682 43.0936H54.1494L58.6807 42.1873C58.8008 42.1658 58.9154 42.1202 59.0175 42.0533C59.1196 41.9864 59.2071 41.8996 59.2748 41.798C59.3425 41.6965 59.389 41.5823 59.4115 41.4623C59.434 41.3423 59.432 41.219 59.4057 41.0998Z" fill="#18407C"/>
<path d="M17.7188 41.2812H28.5938C28.8341 41.2812 29.0646 41.1858 29.2346 41.0158C29.4045 40.8459 29.5 40.6154 29.5 40.375V25.875C29.5 25.6346 29.4045 25.4041 29.2346 25.2342C29.0646 25.0642 28.8341 24.9688 28.5938 24.9688H17.7188C17.4784 24.9688 17.2479 25.0642 17.0779 25.2342C16.908 25.4041 16.8125 25.6346 16.8125 25.875V40.375C16.8125 40.6154 16.908 40.8459 17.0779 41.0158C17.2479 41.1858 17.4784 41.2812 17.7188 41.2812ZM18.625 26.7812H27.6875V39.4688H18.625V26.7812Z" fill="#18407C"/>
<path d="M24.9688 28.5938H23.1562C22.9159 28.5938 22.6854 28.6892 22.5154 28.8592C22.3455 29.0291 22.25 29.2596 22.25 29.5C22.25 29.7404 22.3455 29.9709 22.5154 30.1408C22.6854 30.3108 22.9159 30.4062 23.1562 30.4062H24.9688C25.2091 30.4062 25.4396 30.3108 25.6096 30.1408C25.7795 29.9709 25.875 29.7404 25.875 29.5C25.875 29.2596 25.7795 29.0291 25.6096 28.8592C25.4396 28.6892 25.2091 28.5938 24.9688 28.5938Z" fill="#18407C"/>
<path d="M24.9688 32.2188H21.3438C21.1034 32.2188 20.8729 32.3142 20.7029 32.4842C20.533 32.6541 20.4375 32.8846 20.4375 33.125C20.4375 33.3654 20.533 33.5959 20.7029 33.7658C20.8729 33.9358 21.1034 34.0312 21.3438 34.0312H24.9688C25.2091 34.0312 25.4396 33.9358 25.6096 33.7658C25.7795 33.5959 25.875 33.3654 25.875 33.125C25.875 32.8846 25.7795 32.6541 25.6096 32.4842C25.4396 32.3142 25.2091 32.2188 24.9688 32.2188Z" fill="#18407C"/>
<path d="M24.9688 35.8438H21.3438C21.1034 35.8438 20.8729 35.9392 20.7029 36.1092C20.533 36.2791 20.4375 36.5096 20.4375 36.75C20.4375 36.9904 20.533 37.2209 20.7029 37.3908C20.8729 37.5608 21.1034 37.6562 21.3438 37.6562H24.9688C25.2091 37.6562 25.4396 37.5608 25.6096 37.3908C25.7795 37.2209 25.875 36.9904 25.875 36.75C25.875 36.5096 25.7795 36.2791 25.6096 36.1092C25.4396 35.9392 25.2091 35.8438 24.9688 35.8438Z" fill="#18407C"/>
<path d="M47.7342 41.0094C47.6747 40.9058 47.5954 40.815 47.5008 40.7421C47.4062 40.6693 47.2982 40.6157 47.1829 40.5846C47.0676 40.5534 46.9473 40.5453 46.8289 40.5607C46.7104 40.576 46.5962 40.6146 46.4927 40.6741C46.3891 40.7336 46.2983 40.8129 46.2254 40.9075C46.1525 41.0021 46.099 41.1101 46.0679 41.2254C46.0367 41.3407 46.0286 41.461 46.044 41.5794C46.0593 41.6978 46.0978 41.8121 46.1574 41.9156L50.1539 48.8303L35.6539 54.2678C35.6539 54.2678 35.6539 54.2678 35.5905 54.2678H35.518L33.1617 55.6272L31.5939 56.5334C31.3875 56.6528 31.1596 56.7302 30.9232 56.7613C30.6868 56.7924 30.4467 56.7766 30.2164 56.7147C29.7539 56.5897 29.3596 56.2867 29.1199 55.8719L27.3074 52.7362C27.0941 52.326 27.0457 51.8498 27.1721 51.405C27.2984 50.9603 27.59 50.5806 27.987 50.3437L31.1227 48.5312L33.3883 52.4553C33.4681 52.5936 33.5831 52.7083 33.7216 52.7879C33.86 52.8675 34.017 52.9091 34.1767 52.9084C34.3361 52.9091 34.4928 52.8677 34.6311 52.7884C34.7694 52.7091 34.8843 52.5947 34.9643 52.4569C35.0442 52.319 35.0864 52.1625 35.0866 52.0031C35.0867 51.8437 35.0449 51.6871 34.9652 51.5491L32.627 47.5072L44.0005 38.1275L44.372 38.7709C44.4315 38.8745 44.5109 38.9653 44.6055 39.0382C44.7001 39.111 44.8081 39.1646 44.9234 39.1957C45.0387 39.2269 45.159 39.235 45.2774 39.2196C45.3958 39.2043 45.5101 39.1658 45.6136 39.1062C45.7171 39.0467 45.8079 38.9674 45.8808 38.8728C45.9537 38.7782 46.0073 38.6702 46.0384 38.5549C46.0695 38.4396 46.0777 38.3193 46.0623 38.2009C46.0469 38.0825 46.0084 37.9682 45.9489 37.8647L45.0427 36.2969C44.9762 36.1833 44.8859 36.0856 44.7779 36.0105C44.6699 35.9354 44.5469 35.8847 44.4173 35.8619C44.2871 35.8373 44.1531 35.8416 44.0247 35.8745C43.8963 35.9074 43.7766 35.9681 43.6742 36.0522L30.9867 46.5103L27.1261 48.7397C26.4333 49.1432 25.8938 49.7651 25.5921 50.5079C25.2903 51.2507 25.2434 52.0726 25.4586 52.845L24.5524 53.3616C24.0854 53.6297 23.7086 54.0305 23.4697 54.513C23.2308 54.9956 23.1406 55.5382 23.2105 56.0721C23.2804 56.606 23.5072 57.1071 23.8623 57.5119C24.2174 57.9168 24.6846 58.207 25.2049 58.3459C25.4355 58.407 25.6731 58.4375 25.9117 58.4366C26.3885 58.4346 26.8567 58.3097 27.2711 58.0741L28.1774 57.5575C28.6127 58.0072 29.1602 58.3326 29.7633 58.5C30.073 58.5866 30.3933 58.6293 30.7148 58.6269C31.3519 58.6283 31.9777 58.4594 32.5273 58.1375L33.3158 57.6844L35.1283 60.8291C35.4885 61.4518 36.0809 61.9064 36.7756 62.0933C37.4704 62.2801 38.2108 62.184 38.8348 61.8259C39.1444 61.6476 39.4158 61.4099 39.6335 61.1266C39.8511 60.8433 40.0108 60.5198 40.1034 60.1747C40.196 59.8297 40.2197 59.4697 40.173 59.1155C40.1264 58.7612 40.0104 58.4197 39.8317 58.1103L38.1824 55.2375L51.7761 50.1353C51.8994 50.089 52.0111 50.0163 52.1034 49.9224C52.1958 49.8285 52.2665 49.7156 52.3108 49.5916C52.3549 49.469 52.3721 49.3383 52.3611 49.2085C52.3502 49.0787 52.3114 48.9528 52.2473 48.8394L47.7342 41.0094ZM26.3286 56.4972C26.2254 56.5568 26.1114 56.5956 25.9933 56.6111C25.8751 56.6267 25.755 56.6187 25.6399 56.5878C25.4077 56.5275 25.2089 56.3776 25.087 56.1709C25.0274 56.0677 24.9887 55.9538 24.9731 55.8356C24.9576 55.7174 24.9655 55.5973 24.9964 55.4822C25.0274 55.3665 25.0809 55.258 25.154 55.1631C25.2271 55.0682 25.3183 54.9888 25.4224 54.9294L26.2108 54.4762L27.117 56.0441L26.3286 56.4972ZM38.2548 59.0347C38.3145 59.1379 38.3532 59.2518 38.3688 59.37C38.3843 59.4882 38.3764 59.6083 38.3455 59.7234C38.2808 59.9538 38.1277 60.1493 37.9195 60.2672C37.7125 60.3861 37.467 60.4185 37.2362 60.3574C37.0054 60.2964 36.8081 60.1467 36.687 59.9409L34.8745 56.7962L36.3789 55.9353H36.4514L38.2548 59.0347Z" fill="#18407C"/>
</svg>
