<svg width="88" height="88" viewBox="0 0 88 88" fill="none" xmlns="http://www.w3.org/2000/svg">
<circle cx="44" cy="44" r="43" stroke="#18407C" stroke-width="2"/>
<g clip-path="url(#clip0)">
<path d="M64.7891 41.1183L62.3424 39.6788C62.2697 39.3839 62.1904 39.0908 62.1036 38.8019L63.8441 36.1673C64.0287 35.8883 64.0559 35.5335 63.9159 35.2295C63.3075 33.9152 62.5661 32.6667 61.7033 31.5034C61.509 31.2462 61.2013 31.1002 60.8793 31.1126L57.6359 31.2721C57.432 31.0631 57.2238 30.8592 57.011 30.6604L57.1734 27.5181C57.1906 27.1864 57.0363 26.8691 56.7647 26.678C55.5699 25.8344 54.294 25.1122 52.956 24.5216C52.6621 24.3916 52.3227 24.4165 52.0508 24.5882L49.3323 26.3009C49.0378 26.2165 48.7376 26.1381 48.4346 26.0669L46.9537 23.2521C46.7866 22.9345 46.4574 22.7355 46.0985 22.7354H41.9037C41.5449 22.7355 41.2155 22.9345 41.0486 23.2521L39.5685 26.0669C39.2664 26.1377 38.9669 26.2157 38.6699 26.3009L35.9524 24.5882C35.6809 24.4167 35.3419 24.3916 35.0482 24.5211C33.7094 25.1116 32.4328 25.8342 31.2376 26.6784C30.9667 26.8696 30.8128 27.1863 30.8298 27.5175L30.9922 30.6603C30.7788 30.859 30.5705 31.0625 30.3673 31.271L27.123 31.1116C26.8014 31.1029 26.4949 31.2482 26.298 31.5028C25.4369 32.6668 24.6963 33.9152 24.0874 35.2289C23.9474 35.5327 23.9743 35.887 24.1582 36.1663L25.8986 38.8019C25.8117 39.0908 25.7325 39.3837 25.6597 39.6788L23.2131 41.1178C22.9177 41.2913 22.7363 41.6082 22.7363 41.9507V46.0488C22.7363 46.3913 22.9177 46.7082 23.213 46.8818L25.6596 48.3208C25.7323 48.6157 25.8116 48.9088 25.8985 49.1982L24.1579 51.8322C23.9733 52.1113 23.9461 52.4661 24.0861 52.7701C24.6946 54.0845 25.436 55.3332 26.2988 56.4967C26.4938 56.753 26.801 56.8987 27.1228 56.8874L30.3661 56.7279C30.57 56.9371 30.7782 57.1409 30.991 57.3397L30.8287 60.4814C30.8116 60.8131 30.9659 61.1303 31.2375 61.3215C32.4323 62.165 33.7082 62.8876 35.0461 63.4784C35.3402 63.6079 35.6794 63.5829 35.9513 63.4118L38.6698 61.699C38.9643 61.7835 39.2645 61.8619 39.5675 61.9331L41.0486 64.7479C41.2155 65.0655 41.5449 65.2645 41.9037 65.2647H46.0985C46.4574 65.2646 46.7867 65.0656 46.9537 64.748L48.4338 61.9332C48.7358 61.8624 49.0354 61.7843 49.3325 61.6992L52.05 63.4119C52.3216 63.5829 52.6604 63.608 52.9542 63.479C54.293 62.8885 55.5696 62.1659 56.7648 61.3217C57.0357 61.1305 57.1896 60.8138 57.1726 60.4826L57.0102 57.3398C57.2236 57.141 57.4319 56.9373 57.6351 56.7286L60.8794 56.888C61.2017 56.9019 61.5102 56.7556 61.7034 56.4973C62.5652 55.3334 63.3062 54.0847 63.915 52.7707C64.0549 52.4669 64.0281 52.1126 63.8442 51.8333L62.1037 49.1983C62.1905 48.9095 62.2698 48.6165 62.3425 48.3214L64.7892 46.8824C65.0846 46.7089 65.2659 46.392 65.2658 46.0495V41.9514C65.2658 41.6088 65.0845 41.2918 64.7891 41.1183ZM63.3326 45.4962L61.0048 46.8654C60.7732 47.0014 60.6086 47.2279 60.5508 47.4903C60.4346 48.0179 60.2912 48.5418 60.1259 49.0473C60.0341 49.3275 60.0752 49.6341 60.2373 49.8804L61.9288 52.4417C61.4984 53.3074 61.0037 54.1396 60.4488 54.9312L57.2876 54.776C57.0038 54.7677 56.7298 54.8795 56.5325 55.0837C56.1672 55.4759 55.7801 55.8549 55.3799 56.2102C55.1602 56.405 55.041 56.6892 55.0561 56.9824L55.2138 60.0416C54.3926 60.5899 53.5319 61.0767 52.6389 61.4981L49.9912 59.8292C49.7516 59.6777 49.4574 59.6395 49.187 59.7249C48.6678 59.8873 48.1298 60.0275 47.5889 60.1412C47.3068 60.2 47.0658 60.382 46.932 60.6371L45.5151 63.3316H42.4869L41.0701 60.6371C40.9361 60.3824 40.6956 60.2006 40.414 60.1412C39.8684 60.026 39.3303 59.8864 38.815 59.7249C38.5448 59.6394 38.2504 59.6776 38.0109 59.8292L35.3622 61.498C34.4692 61.0761 33.6086 60.5889 32.7871 60.0405L32.9458 56.9823C32.9607 56.6884 32.8413 56.4038 32.621 56.2088C32.2226 55.8557 31.8347 55.4767 31.4685 55.0832C31.2727 54.8768 30.9976 54.7647 30.7133 54.7755L27.5531 54.9307C26.9976 54.1395 26.5026 53.3074 26.0721 52.4416L27.7636 49.8807C27.9265 49.6347 27.9679 49.3276 27.876 49.0473C27.7108 48.5418 27.5673 48.0175 27.4512 47.4898C27.3933 47.2274 27.2288 47.0009 26.9971 46.8649L24.6694 45.4958V42.504L26.9971 41.1348C27.2287 40.9988 27.3933 40.7723 27.4512 40.5099C27.5673 39.9823 27.7107 39.4584 27.876 38.9529C27.9678 38.6727 27.9267 38.3661 27.7646 38.1198L26.0731 35.558C26.5037 34.6925 26.9984 33.8603 27.5531 33.0685L30.7143 33.2243C30.9992 33.2385 31.2756 33.1258 31.4694 32.9165C31.8347 32.5243 32.2218 32.1453 32.622 31.79C32.8417 31.5952 32.9609 31.311 32.9458 31.0178L32.7881 27.9586C33.6093 27.4103 34.4701 26.9235 35.363 26.5021L38.0107 28.171C38.2506 28.322 38.5445 28.3601 38.8149 28.2753C39.3341 28.1129 39.8721 27.9727 40.413 27.859C40.6952 27.8002 40.9361 27.6182 41.0699 27.3631L42.4868 24.6686H45.515L46.9318 27.3631C47.0658 27.6178 47.3063 27.7996 47.5879 27.859C48.1335 27.9742 48.6716 28.1139 49.1869 28.2753C49.4573 28.3595 49.7511 28.3214 49.9911 28.171L52.6398 26.5022C53.5328 26.924 54.3934 27.4109 55.2149 27.9592L55.0563 31.0179C55.0413 31.3118 55.1608 31.5964 55.381 31.7914C55.7794 32.1445 56.1673 32.5235 56.5336 32.917C56.7288 33.1242 57.0043 33.2365 57.2887 33.2247L60.4489 33.0695C61.0044 33.8607 61.4994 34.6928 61.9299 35.5586L60.2384 38.1195C60.0756 38.3655 60.0341 38.6726 60.1261 38.9529C60.2912 39.4584 60.4348 39.9822 60.5509 40.5099C60.6087 40.7723 60.7732 40.9988 61.0049 41.1348L63.3327 42.504V45.4962H63.3326Z" fill="#18407C"/>
<path d="M43.9986 29.5015C35.9913 29.5015 29.5 35.9927 29.5 44.0001C29.5 52.0074 35.9913 58.4987 43.9986 58.4987C52.006 58.4987 58.4972 52.0074 58.4972 44.0001C58.4884 35.9964 52.0023 29.5103 43.9986 29.5015ZM43.9986 56.5656C37.0589 56.5656 31.4331 50.9399 31.4331 44.0001C31.4331 37.0603 37.0589 31.4346 43.9986 31.4346C50.9384 31.4346 56.5641 37.0603 56.5641 44.0001C56.5562 50.9365 50.9351 56.5577 43.9986 56.5656Z" fill="#18407C"/>
<path d="M64.2975 18.8691V24.6686H58.498V26.6017H65.2641C65.7977 26.6019 66.2305 26.1693 66.2306 25.6356C66.2306 25.6355 66.2306 25.6353 66.2306 25.6352V18.8691H64.2975Z" fill="#18407C"/>
<path d="M22.7342 61.3984C22.2005 61.3983 21.7677 61.8309 21.7676 62.3645C21.7676 62.3646 21.7676 62.3649 21.7676 62.365V69.131H23.7007V63.3316H29.5002V61.3984H22.7342Z" fill="#18407C"/>
<path d="M20.0034 27.7257C16.7463 32.5281 15.0048 38.1972 15.004 44.0001C14.9936 49.8074 16.7363 55.4825 20.0039 60.2832L21.6029 59.1958C13.2124 46.8237 16.44 29.9922 28.8122 21.6017C37.985 15.3809 50.0234 15.3808 59.1964 21.6014L60.2838 20.0024C47.0279 11.012 28.9938 14.4699 20.0034 27.7257Z" fill="#18407C"/>
<path d="M68.1874 28.001L66.5751 29.0686C74.8195 41.5387 71.394 58.3311 58.924 66.5755C49.7753 72.6239 37.8812 72.5541 28.8042 66.3987L27.7168 67.9977C40.9729 76.9879 59.0071 73.5297 67.9973 60.2737C74.5932 50.5481 74.6682 37.8035 68.1874 28.001Z" fill="#18407C"/>
</g>
<defs>
<clipPath id="clip0">
<rect width="58" height="58" fill="white" transform="translate(15 15)"/>
</clipPath>
</defs>
</svg>
